<?xml version="1.0" encoding="utf-8"?>
<!-- Generator: Adobe Illustrator 23.0.3, SVG Export Plug-In . SVG Version: 6.00 Build 0)  -->
<svg version="1.1" id="Layer_2" xmlns="http://www.w3.org/2000/svg" xmlns:xlink="http://www.w3.org/1999/xlink" x="0px" y="0px"
	 viewBox="0 0 364.24 190.31" style="enable-background:new 0 0 364.24 190.31;" xml:space="preserve">
<style type="text/css">
	.st0{fill:#FFFFFF;}
</style>
<g>
	<g>
		<path class="st0" d="M277.88,100.4c0,0-1.01-0.92-2.49-2c-4.74,0.74-9.69,1.44-14.84,2.09c-3,6.53-4.57,16.5-17.69,16.5
			c-11.71,0-21.47-9.26-28.78-9.26s-7.31,7.74-7.31,7.74c0,9.66-15.89,11.62-22.15,19.04v7.68c2.94,0.19,5.54,0.67,8.07,1.14
			c3.34,0.63,6.8,1.27,11.25,1.27c7,0,9.4-8.57,9.5-8.93c0.36-1.33,1.73-2.12,3.06-1.76c1.33,0.36,2.12,1.72,1.77,3.05
			c-0.14,0.52-3.48,12.64-14.33,12.64c-4.92,0-8.61-0.69-12.17-1.36c-3.13-0.59-6.09-1.14-9.65-1.14s-6.52,0.55-9.65,1.14
			c-3.41,0.64-6.94,1.29-11.54,1.35c1.92,9.84,12.61,19.85,30.84,19.85c14.05,0,25.23-5.95,30.74-13.19
			c1.46-1.93,4.11-2.42,6.25-1.29c4.07,2.14,11.5,4.49,22.96,2.56c18.87-3.18,35.16-31.22,35.16-40.49S277.88,100.4,277.88,100.4z"
			/>
		<path class="st0" d="M179.62,142.19v-7.68c-6.26-7.43-22.15-9.38-22.15-19.04c0,0,0-7.74-7.31-7.74s-17.08,9.26-28.78,9.26
			c-5.02,0-8.34-1.46-10.7-3.63c0,0.02,0,0.04,0,0.06c0,16.82,13.63,30.45,30.45,30.45c2.62,0,5.17-0.34,7.6-0.97
			c-1.92-2.9-2.69-5.7-2.75-5.94c-0.35-1.33,0.44-2.7,1.78-3.06c1.33-0.36,2.7,0.44,3.06,1.78c0.1,0.36,2.5,8.93,9.5,8.93
			c4.46,0,7.91-0.65,11.25-1.27C174.08,142.86,176.68,142.38,179.62,142.19z"/>
		<path class="st0" d="M275.95,95.3c43.9-8.54,63.58-20.57,63.58-20.57l-0.01,0c-39.83-5.59-77.77-15.4-113.05-28.79
			c0.06,0.03,0.13,0.07,0.19,0.1c13.63,6.9,26.12,12.67,36.7,17.34c10.58,4.67,19.23,8.24,25.21,10.73
			c5.98,2.48,9.28,3.87,9.19,4.14c-0.09,0.27-3.58-0.62-9.75-2.66c-6.16-2.04-15.01-5.22-25.77-9.56
			c-19.8-7.99-46.07-20.03-73.84-36.18c0.31,0.89,0.61,1.78,0.92,2.65c1.85,5.21,3.78,10.19,5.72,14.89
			c3.88,9.4,7.82,17.68,11.32,24.55c7,13.74,12.08,21.85,11.6,22.17c-0.45,0.32-6.41-7.29-14.13-20.81
			c-6.6-11.55-14.35-27.5-20.61-46.24c-0.14-0.07-0.27-0.13-0.41-0.2c-0.87,7.78-1.86,19.63-1.86,33.36
			c0,20.96,2.3,37.52,2.97,41.93C220.59,102.04,251.12,99.22,275.95,95.3z"/>
		<path class="st0" d="M176.93,60.2c0-12.81,0.85-24,1.68-31.87c-0.93,1.97-1.85,3.94-2.73,5.88c-2.45,5.41-4.68,10.69-6.69,15.76
			c-4.04,10.14-7.22,19.45-9.7,27.34c-3.82,12.16-6.03,20.89-7.11,24.21c8.75,0.37,17.9,0.59,27.48,0.62
			C179.07,96.81,176.93,80.53,176.93,60.2z"/>
	</g>
	<path d="M363.15,70.03l-0.02,0c-0.07-0.02-0.13-0.03-0.2-0.04c-63.85-8.76-123.94-26.75-178.66-53.46V0.97c0,0-0.47-0.98-2.15-0.98
		c-1.68,0-2.15,0.98-2.15,0.98v15.53c0,0.01-0.01,0.01-0.01,0.02C125.24,43.24,65.15,61.23,1.31,69.99
		C1.24,70,1.16,70.01,1.09,70.03c-0.58,0.16-1,0.65-1.08,1.25c-0.08,0.59,0.2,1.18,0.72,1.49c0.37,0.22,26.65,15.52,84.16,25
		c-8.34,7.2-16.88,17.27-16.88,28.38c0,21.71,36.52,50.68,73.72,50.68c0,0,14.96,13.49,40.38,13.49c25.42,0,33.25-9.35,40.38-13.49
		c7.13-4.13,11.07-7.39,28.62-7.39c22.17,0,51.32-36.73,51.32-49.81c0-7.05-8.92-16.06-17.16-22.88
		c53.38-9.52,77.86-23.77,78.22-23.98c0.51-0.31,0.8-0.89,0.72-1.49C364.15,70.69,363.72,70.2,363.15,70.03z M159.49,77.3
		c2.48-7.89,5.66-17.2,9.7-27.34c2.02-5.07,4.25-10.35,6.69-15.76c0.88-1.94,1.79-3.9,2.73-5.88c-0.83,7.87-1.68,19.06-1.68,31.87
		c0,20.33,2.14,36.61,2.93,41.93c-9.58-0.03-18.74-0.24-27.48-0.62C153.46,98.19,155.67,89.46,159.49,77.3z M150.8,135.68
		c-0.35-1.33-1.72-2.13-3.06-1.78c-1.33,0.35-2.13,1.72-1.78,3.06c0.06,0.24,0.83,3.04,2.75,5.94c-2.43,0.63-4.97,0.97-7.6,0.97
		c-16.84,0-30.48-13.66-30.45-30.51c0,0,0,0,0,0c2.37,2.17,5.69,3.63,10.7,3.63c11.71,0,21.47-9.26,28.78-9.26s7.31,7.74,7.31,7.74
		c0,9.66,15.89,11.62,22.15,19.04v7.68c-2.94,0.19-5.54,0.67-8.07,1.14c-3.34,0.63-6.8,1.27-11.25,1.27
		C153.31,144.61,150.9,136.04,150.8,135.68z M286.87,117.03c0,9.26-16.29,37.3-35.16,40.49c-11.46,1.93-18.89-0.42-22.96-2.56
		c-2.14-1.13-4.79-0.63-6.25,1.29c-5.5,7.24-16.68,13.19-30.74,13.19c-18.22,0-28.92-10.01-30.84-19.85
		c4.6-0.06,8.14-0.71,11.54-1.35c3.13-0.59,6.09-1.14,9.65-1.14s6.52,0.55,9.65,1.14c3.57,0.67,7.25,1.36,12.17,1.36
		c10.86,0,14.2-12.13,14.33-12.64c0.35-1.33-0.44-2.69-1.77-3.05c-1.33-0.36-2.7,0.43-3.06,1.76c-0.1,0.36-2.51,8.93-9.5,8.93
		c-4.46,0-7.91-0.65-11.25-1.27c-2.53-0.47-5.12-0.95-8.07-1.14v-7.68c6.26-7.43,22.15-9.38,22.15-19.04c0,0,0-7.74,7.31-7.74
		s17.08,9.26,28.78,9.26c13.12,0,14.69-9.97,17.69-16.5c5.15-0.65,10.1-1.35,14.84-2.09c1.48,1.08,2.49,2,2.49,2
		S286.87,107.77,286.87,117.03z M275.95,95.3c-24.82,3.93-55.36,6.74-92.04,6.83c-0.67-4.41-2.97-20.97-2.97-41.93
		c0-13.74,0.99-25.59,1.86-33.37c0.18-0.01,0.15-0.01,0.33-0.02c6.27,18.85,14.06,34.88,20.69,46.48
		c7.72,13.52,13.68,21.13,14.13,20.81c0.47-0.32-4.6-8.43-11.6-22.17c-3.49-6.87-7.44-15.15-11.32-24.55
		c-1.94-4.7-3.86-9.68-5.72-14.89c-0.31-0.87-0.62-1.76-0.92-2.65c27.77,16.15,54.04,28.19,73.84,36.18
		c10.77,4.35,19.61,7.53,25.77,9.56c6.17,2.03,9.66,2.92,9.75,2.66c0.09-0.27-3.22-1.66-9.19-4.14
		c-5.98-2.48-14.63-6.06-25.21-10.73c-10.63-4.69-23.19-10.5-36.89-17.44c0,0,0,0,0,0c35.28,13.4,73.23,23.2,113.05,28.79l0.01,0
		C339.52,74.73,319.85,86.76,275.95,95.3z"/>
</g>
</svg>
